<svg xmlns="http://www.w3.org/2000/svg" xmlns:xlink="http://www.w3.org/1999/xlink" width="1200" height="347" viewBox="0 0 1200 347">
    <defs>
        <linearGradient id="iv3lsa6gjb" x1="50%" x2="50%" y1="99.993%" y2="0%">
            <stop offset="0%" stop-color="#DFEFF7"/>
            <stop offset="100%" stop-color="#FFF" stop-opacity="0"/>
        </linearGradient>
        <linearGradient id="yz7yr76icd" x1="49.999%" x2="49.999%" y1="100.031%" y2="-.021%">
            <stop offset="0%" stop-color="#FFF" stop-opacity=".4"/>
            <stop offset="100%" stop-color="#FFF"/>
        </linearGradient>
        <linearGradient id="m1hqdqjwje" x1="50.032%" x2="50.032%" y1="100.063%" y2=".048%">
            <stop offset="0%" stop-color="#FFF" stop-opacity=".4"/>
            <stop offset="100%" stop-color="#FFF"/>
        </linearGradient>
        <linearGradient id="mjixdt5eof" x1="49.955%" x2="49.955%" y1="100.046%" y2=".032%">
            <stop offset="0%" stop-color="#FFF" stop-opacity=".4"/>
            <stop offset="100%" stop-color="#FFF"/>
        </linearGradient>
        <linearGradient id="jxsgcpkcpg" x1="50%" x2="50%" y1="0%" y2="100%">
            <stop offset="0%" stop-color="#FFF" stop-opacity="0"/>
            <stop offset="100%" stop-color="#FFF"/>
        </linearGradient>
        <path id="7qecuvf6ca" d="M0 0.348H1200V346.348H0z"/>
    </defs>
    <g fill="none" fill-rule="evenodd">
        <g>
            <g>
                <g>
                    <g transform="translate(-120 -855) translate(120 665) translate(0 25) translate(0 165)">
                        <mask id="wws9ayzdcc" fill="#fff">
                            <use xlink:href="#7qecuvf6ca"/>
                        </mask>
                        <use fill="url(#iv3lsa6gjb)" fill-rule="nonzero" xlink:href="#7qecuvf6ca"/>
                        <g fill-rule="nonzero" mask="url(#wws9ayzdcc)">
                            <g>
                                <path fill="url(#yz7yr76icd)" d="M1645.108 160.392c0-57.786-55.03-104.555-122.828-104.555-4.755 0-9.422.225-14 .675C1487.764 23.159 1446.734.45 1399.45.45c-53.181 0-98.439 28.705-115.52 68.953-30.641 6.146-56.792 22.035-73.785 43.696-16.553 1.874-32.138 6.52-45.874 13.34-10.83-14.464-29.76-24.133-51.42-24.133-25.182 0-46.842 13.041-56.088 31.554-1.584-.225-3.17-.3-4.842-.3-2.73 0-5.283.3-7.837.75-13.911-21.736-39.886-37.1-70.263-39.724C965.81 54.788 925.043 24.508 876 24.508c-46.314 0-85.232 26.982-96.15 63.558-18.578 4.796-34.78 14.09-46.93 26.382-7.044-8.47-18.578-14.016-31.698-14.016-15.056 0-28.087 7.27-34.515 17.913-13.471-19.786-38.565-33.127-67.357-33.127-25.534 0-48.163 10.493-62.339 26.607-8.54-14.166-25.798-23.91-45.874-23.91-25.71 0-47.106 16.115-50.892 37.1-1.585-.299-3.17-.449-4.754-.449-8.805 0-16.29 4.572-19.46 11.168-1.672-.3-3.433-.375-5.194-.375-9.07 0-17.082 3.522-22.365 9.069-10.478-9.444-25.27-15.365-41.647-15.365-11.975 0-23.069 3.148-32.314 8.47-3.874-3.598-9.333-5.847-15.496-5.847-9.862 0-18.139 5.846-20.428 13.641-6.075-2.998-13.031-4.722-20.603-4.722-21.22 0-38.654 13.716-40.767 31.254-14.704-9.968-33.37-15.964-53.71-15.964-24.742 0-47.106 8.919-62.779 23.16-10.037-11.843-26.327-19.637-44.817-19.637-30.465 0-55.119 20.985-55.119 46.918 0 25.932 24.654 46.918 55.12 46.918 7.043 0 13.823-1.124 20.074-3.222 1.85.899 3.874 1.798 6.076 2.698 11.534 28.855 43.672 49.691 81.533 49.691 22.188 0 42.44-7.195 57.76-18.887 140.438 19.712 358.008 32.303 602.256 32.303 122.476 0 238.172-3.148 340.837-8.844 18.139 8.994 39.27 14.166 61.81 14.166 29.85 0 57.233-9.07 78.54-24.134 95.798-8.544 172.577-19.562 222.324-32.228 65.509-2.099 117.986-48.043 117.986-104.405zm-1196.146-3.523c-.352 0-.792.075-1.145.075.265-.15.529-.3.793-.524.088.15.264.3.352.45z" transform="translate(-253 112.348)"/>
                                <path fill="url(#m1hqdqjwje)" d="M1395.577 196.443c-2.553-37.025-38.653-66.48-82.766-66.48-26.767 0-50.628 10.792-65.773 27.58-2.73-.299-5.459-.449-8.276-.449-24.918 0-46.578 11.917-57.496 29.38-1.761-.75-3.698-1.424-5.635-1.873-2.114-30.505-31.786-54.714-68.15-54.714-22.013 0-41.648 8.92-54.15 22.71-2.202-.225-4.491-.375-6.78-.375-28.352 0-51.597 18.813-53.446 42.497-12.327-14.915-32.754-24.659-55.823-24.659-22.012 0-41.647 8.92-54.15 22.71-2.201-.225-4.49-.375-6.78-.375-29.584 0-53.534 20.387-53.534 45.57 0 21.81 17.962 40.023 42.088 44.52.968 24.433 24.565 43.995 53.533 43.995 9.334 0 18.139-2.024 25.71-5.621 10.302 5.246 22.277 8.32 35.132 8.32 15.85 0 30.465-4.648 42.088-12.367 5.019 2.698 10.918 4.347 17.257 4.347 13.824 0 25.535-7.42 30.025-17.838.793-.15 1.673-.225 2.465-.375 9.686 11.542 25.623 19.112 43.585 19.112 9.333 0 18.138-2.024 25.71-5.621 10.302 5.246 22.276 8.32 35.132 8.32 15.848 0 30.465-4.648 42.087-12.368 5.019 2.699 10.918 4.348 17.258 4.348 17.697 0 32.05-12.217 32.05-27.282 0-1.649-.177-3.223-.529-4.722 6.252-1.124 12.063-3.448 16.906-6.67 2.993 1.649 6.515 2.623 10.39 2.623 7.748 0 14.351-3.898 17.433-9.519h1.409c19.283 0 36.98-5.62 51.068-14.99 6.076 3.298 13.296 5.247 20.956 5.247 21.484 0 38.922-14.84 38.922-33.128.26-15.14-11.627-27.881-27.916-31.853z" transform="translate(-253 112.348)"/>
                                <path fill="url(#mjixdt5eof)" d="M250.588 237.59c2.553-37.025 38.653-66.48 82.766-66.48 26.767 0 50.628 10.792 65.772 27.581 2.73-.3 5.46-.45 8.277-.45 24.918 0 46.578 11.917 57.496 29.38 1.76-.749 3.698-1.423 5.635-1.873 2.113-30.505 31.786-54.713 68.15-54.713 22.012 0 41.647 8.919 54.15 22.71 2.201-.225 4.49-.375 6.78-.375 28.352 0 51.597 18.812 53.446 42.496 12.327-14.915 32.754-24.658 55.823-24.658 22.012 0 41.647 8.919 54.15 22.71 2.201-.225 4.49-.375 6.78-.375 29.584 0 53.533 20.386 53.533 45.569 0 21.81-17.962 40.023-42.087 44.52-.968 24.433-24.566 43.995-53.534 43.995-9.333 0-18.138-2.023-25.71-5.62-10.302 5.246-22.276 8.318-35.132 8.318-15.848 0-30.465-4.646-42.087-12.366-5.019 2.698-10.918 4.347-17.258 4.347-13.823 0-25.534-7.42-30.024-17.838-.793-.15-1.673-.225-2.466-.375-9.685 11.542-25.622 19.112-43.584 19.112-9.333 0-18.138-2.023-25.71-5.621-10.302 5.247-22.277 8.32-35.132 8.32-15.849 0-30.465-4.647-42.087-12.367-5.02 2.698-10.918 4.347-17.258 4.347-17.698 0-32.05-12.217-32.05-27.282 0-1.649.176-3.223.528-4.722-6.251-1.124-12.062-3.447-16.905-6.67-2.994 1.649-6.516 2.623-10.39 2.623-7.748 0-14.352-3.897-17.433-9.518h-1.41c-19.282 0-36.98-5.622-51.068-14.99-6.075 3.297-13.295 5.246-20.955 5.246-21.484 0-38.918-14.84-38.918-33.128-.352-15.14 11.534-27.956 27.912-31.853z" transform="translate(-253 112.348)"/>
                            </g>
                        </g>
                        <path fill="url(#jxsgcpkcpg)" d="M0 255H1200V347H0z" mask="url(#wws9ayzdcc)"/>
                    </g>
                </g>
            </g>
        </g>
    </g>
</svg>
