<?xml version="1.0" encoding="UTF-8"?>
<svg width="110px" height="110px" viewBox="0 0 110 110" version="1.1" xmlns="http://www.w3.org/2000/svg" xmlns:xlink="http://www.w3.org/1999/xlink">
    <title>Group 3</title>
    <defs>
        <circle id="path-1" cx="55" cy="55" r="55"></circle>
        <linearGradient x1="50.0021998%" y1="93.2383646%" x2="49.9985766%" y2="20.0603814%" id="linearGradient-3">
            <stop stop-color="#E6E6E6" offset="0.03306878%"></stop>
            <stop stop-color="#EBEBEB" offset="6.36%"></stop>
            <stop stop-color="#FAFAFA" offset="31.37%"></stop>
            <stop stop-color="#FFFFFF" offset="51.81%"></stop>
        </linearGradient>
        <linearGradient x1="105.155023%" y1="-19.8948633%" x2="11.7565066%" y2="105.253222%" id="linearGradient-4">
            <stop stop-color="#F01428" offset="28.94%"></stop>
            <stop stop-color="#76232F" offset="76.67%"></stop>
        </linearGradient>
        <linearGradient x1="-5.15580895%" y1="-19.8948633%" x2="88.2431266%" y2="105.253222%" id="linearGradient-5">
            <stop stop-color="#F01428" offset="28.94%"></stop>
            <stop stop-color="#76232F" offset="76.67%"></stop>
        </linearGradient>
        <radialGradient cx="52.4921931%" cy="-14.9376963%" fx="52.4921931%" fy="-14.9376963%" r="334.46978%" gradientTransform="translate(0.524922,-0.149377),scale(0.256831,1.000000),translate(-0.524922,0.149377)" id="radialGradient-6">
            <stop stop-color="#F01428" offset="28.94%"></stop>
            <stop stop-color="#76232F" offset="76.67%"></stop>
        </radialGradient>
        <linearGradient x1="101.010741%" y1="14.3518519%" x2="-26.5703704%" y2="103.366667%" id="linearGradient-7">
            <stop stop-color="#E0B53B" offset="24.79%"></stop>
            <stop stop-color="#DFB43A" offset="25.58%"></stop>
            <stop stop-color="#CE8E21" offset="52.18%"></stop>
            <stop stop-color="#C88017" offset="66.22%"></stop>
        </linearGradient>
    </defs>
    <g id="Symbols" stroke="none" stroke-width="1" fill="none" fill-rule="evenodd">
        <g id="Active-Visa-Platinum-Bonus" transform="translate(-215.000000, -17.000000)">
            <g id="Group-3" transform="translate(215.000000, 17.000000)">
                <mask id="mask-2" fill="white">
                    <use xlink:href="#path-1"></use>
                </mask>
                <use id="Mask" fill="#BAD8EB" xlink:href="#path-1"></use>
                <g mask="url(#mask-2)" id="Gift-box">
                    <g transform="translate(10.144444, 19.433333)">
                        <g id="Group" transform="translate(14.553265, 18.760972)" fill-rule="nonzero">
                            <polygon id="Path" fill="#C1C1C1" points="0.0388611498 3.17941631 5.84511551 7.80101131 53.967888 7.80101131 59.7741423 3.17941631"></polygon>
                            <polyline id="Path" fill="#AAAAAA" points="0.0388611498 3.17941631 5.84511551 0.0722013181 5.84511551 7.80101131"></polyline>
                            <polygon id="Path" fill="#AAAAAA" points="53.9352902 7.80101131 59.7414022 3.17941631 53.9352902 0.0722013181"></polygon>
                        </g>
                        <g id="Box" transform="translate(16.126591, 45.339017)" fill-rule="nonzero">
                            <path d="M54.1749985,45.3199227 L0.773950812,45.3199227 C0.403621795,45.3199227 0.103420116,45.021491 0.103420116,44.6533455 L0.103420116,0.0785865306 L54.8455292,0.0785865306 L54.8455292,44.6533455 C54.8455292,45.021491 54.5453275,45.3199227 54.1749985,45.3199227 Z" id="Path" fill="#D0D0CE"></path>
                            <path d="M54.1749985,45.3199227 L0.773950812,45.3199227 C0.403621795,45.3199227 0.103420116,45.021491 0.103420116,44.6533455 L0.103420116,0.0785865306 L54.8455292,0.0785865306 L54.8455292,44.6533455 C54.8455292,45.021491 54.5453275,45.3199227 54.1749985,45.3199227 Z" id="Path" fill="url(#linearGradient-3)"></path>
                            <rect id="Rectangle" fill="#F01428" x="21.7917518" y="0.00211254114" width="11.3655874" height="45.3178101"></rect>
                        </g>
                        <g id="Group" transform="translate(27.139872, 0.000000)" fill-rule="nonzero">
                            <g id="Path">
                                <path d="M6.44014234,0.396426158 C3.0971688,4.0470761 0.691534548,7.93069027 0.141704329,11.0816668 C-0.40812589,14.2326433 5.36516401,16.7240447 13.4754138,15.0386531 L13.4754138,10.3488744 L6.44014234,0.396426158 Z" fill="#F01428"></path>
                                <path d="M13.4754138,10.3488744 C11.5518066,10.0306189 3.5781795,2.801298 6.44014234,0.396426158 C9.62805418,-2.28258498 15.6500526,11.8862834 13.4754138,10.3488744 Z" fill="url(#linearGradient-4)"></path>
                                <path d="M13.4754138,10.3488744 C11.2760929,9.76267136 3.5781795,2.801298 6.44014234,0.396426158 C6.44014234,0.396426158 7.92847336,5.90227622 13.4754138,10.3488744 Z" fill="#000000" opacity="0.15"></path>
                            </g>
                            <g transform="translate(19.455307, 0.000000)" id="Path">
                                <path d="M7.58466614,0.396426158 C10.9276397,4.0470761 13.3332739,7.93069027 13.8831041,11.0816668 C14.4329344,14.2326433 8.65964447,16.7240447 0.549394653,15.0386531 L0.549394653,10.3488744 L7.58466614,0.396426158 Z" fill="#F01428"></path>
                                <path d="M0.549394653,10.3488744 C2.47300188,10.0306189 10.446629,2.801298 7.58466614,0.396426158 C4.39660911,-2.28258498 -1.62524412,11.8862834 0.549394653,10.3488744 Z" fill="url(#linearGradient-5)"></path>
                                <path d="M0.549394653,10.3488744 C2.74871553,9.76267136 10.446629,2.801298 7.58466614,0.396426158 C7.58466614,0.396426158 6.09633512,5.90227622 0.549394653,10.3488744 Z" fill="#000000" opacity="0.15"></path>
                            </g>
                            <rect id="Rectangle" fill="#F01428" x="13.4754138" y="10.3488744" width="6.52943349" height="4.68977872"></rect>
                            <path d="M19.6687351,10.3488744 C19.8307659,10.3385032 19.9946841,10.4728639 20.0208181,10.6556751 C20.0333043,10.8321397 20.0327236,10.9996262 20.0394023,11.1720662 L20.0687304,12.1997403 L20.105318,14.2549336 L20.1098189,14.511736 C20.1070603,14.5993491 20.1234666,14.6725664 20.1005268,14.7960917 C20.0765706,14.9072334 20.0123971,15.0075396 19.9244127,15.0728624 C19.8805656,15.1056787 19.8310562,15.1302908 19.7789334,15.1446866 C19.7291337,15.1598564 19.6653958,15.1612495 19.6315668,15.1609399 L18.6676579,15.1706919 L16.7399854,15.1784316 L14.8123129,15.1710015 L13.848404,15.1610947 C13.814575,15.1615591 13.7506919,15.160166 13.7008921,15.1448414 C13.6487693,15.1304456 13.5991147,15.1059882 13.5554129,15.0730172 C13.4674284,15.0076944 13.4034001,14.9072334 13.3790084,14.7962464 C13.3559234,14.6724116 13.3724749,14.5993491 13.3697163,14.511736 L13.3742172,14.2549336 L13.4108048,12.1997403 L13.4404233,11.1720662 C13.447102,10.9996262 13.4465212,10.8321397 13.4590075,10.6556751 C13.4851415,10.4728639 13.6492049,10.3385032 13.8112357,10.3488744 C13.6483338,10.3535182 13.5080813,10.4980953 13.4983537,10.6614024 C13.497047,10.8265671 13.5064842,11.0022577 13.510114,11.172221 L13.5397325,12.199895 L13.5763201,14.2550884 L13.5808209,14.5118908 C13.5843055,14.5947053 13.5786431,14.6954759 13.5925812,14.7392824 C13.6069549,14.7942341 13.6391869,14.844542 13.6841954,14.8759651 C13.7064093,14.8919088 13.7310914,14.9032088 13.7567898,14.9097101 C13.7849565,14.9163662 13.8020888,14.9169854 13.8485492,14.9160566 L14.8124581,14.9061498 L16.7401306,14.8988745 L18.6678031,14.9066142 L19.6317119,14.9163662 C19.6780272,14.917295 19.6953047,14.9166758 19.7234713,14.9100197 C19.7491697,14.9035183 19.773997,14.8922184 19.7962109,14.8762747 C19.8412195,14.8448516 19.8735966,14.7945437 19.8882607,14.7394372 C19.9021988,14.6954759 19.8963912,14.5947053 19.900021,14.5118908 L19.9045218,14.2550884 L19.9411094,12.199895 L19.9704376,11.172221 C19.9739221,11.0022577 19.9832142,10.8267219 19.9820527,10.6614024 C19.9720346,10.4979405 19.831637,10.3535182 19.6687351,10.3488744 Z" id="Path" fill="#76232F"></path>
                            <path d="M31.8599534,7.03753176 C28.5579232,12.5323915 20.0047021,12.020025 20.0047021,12.020025 C20.0047021,12.020025 19.3729854,12.6938411 16.7399854,12.6938411 C14.1069854,12.6938411 13.4752686,12.020025 13.4752686,12.020025 C13.4752686,12.020025 4.92190241,12.5323915 1.62001732,7.03753176 L1.62001732,7.03753176 C0.872730248,8.46085801 0.360213566,9.82923257 0.14155914,11.0816668 C-0.408271079,14.2326433 5.36501882,16.7240447 13.4752686,15.0386531 L20.0045569,15.0386531 C28.1148068,16.7240447 33.8880967,14.2326433 33.3382664,11.0816668 C33.1199024,9.82923257 32.6072405,8.46070322 31.8599534,7.03753176 Z" id="Path" fill="url(#radialGradient-6)" opacity="0.2"></path>
                        </g>
                        <rect id="Rectangle" fill="#FFFFFF" fill-rule="nonzero" x="14.5532646" y="12.5073149" width="59.7863843" height="9.3804862"></rect>
                        <rect id="Rectangle" fill="#F01428" fill-rule="nonzero" x="38.1531532" y="12.5073149" width="12.5866072" height="9.3804862"></rect>
                        <g id="Confetti" transform="translate(0.000000, 20.797397)" fill="#D6A836" fill-rule="nonzero">
                            <ellipse id="Oval" cx="23.6262433" cy="15.1763129" rx="1" ry="1"></ellipse>
                            <ellipse id="Oval" cx="10.7546497" cy="32.7202819" rx="1" ry="1"></ellipse>
                            <g id="Group" transform="translate(37.168924, 5.171001)">
                                <ellipse id="Oval" cx="21.8389107" cy="7.86865749" rx="1" ry="1"></ellipse>
                                <ellipse id="Oval" cx="33.7381159" cy="1.81438168" rx="1.1252684" ry="1.12999914"></ellipse>
                                <ellipse id="Oval" cx="41.7476078" cy="0.650865653" rx="1" ry="1"></ellipse>
                                <ellipse id="Oval" cx="18.0540952" cy="5.47012506" rx="1" ry="1"></ellipse>
                                <ellipse id="Oval" cx="5.41332544" cy="12.4805831" rx="1" ry="1"></ellipse>
                                <ellipse id="Oval" cx="13.9480583" cy="14.2834323" rx="1" ry="1"></ellipse>
                                <ellipse id="Oval" cx="0.799213527" cy="6.32521301" rx="1" ry="1"></ellipse>
                                <ellipse id="Oval" cx="28.6439868" cy="2.40746323" rx="1" ry="1"></ellipse>
                                <ellipse id="Oval" cx="31.754903" cy="12.5155889" rx="1" ry="1"></ellipse>
                                <ellipse id="Oval" cx="36.0537957" cy="11.0994452" rx="1" ry="1"></ellipse>
                                <ellipse id="Oval" cx="40.1985216" cy="18.028348" rx="1" ry="1"></ellipse>
                                <ellipse id="Oval" cx="10.0824227" cy="2.63320941" rx="1" ry="1"></ellipse>
                                <ellipse id="Oval" cx="48.8543121" cy="8.13321163" rx="1" ry="1"></ellipse>
                                <ellipse id="Oval" cx="28.317304" cy="18.5933056" rx="1" ry="1"></ellipse>
                            </g>
                            <g id="Group" transform="translate(44.322796, 0.000000)">
                                <polygon id="Rectangle" transform="translate(41.522138, 23.268798) rotate(-86.824301) translate(-41.522138, -23.268798) " points="40.7799669 22.5355489 42.2653031 22.5345557 42.2643099 24.0020471 40.7789738 24.0030403"></polygon>
                                <polygon id="Rectangle" transform="translate(22.811857, 13.039685) rotate(-86.824301) translate(-22.811857, -13.039685) " points="22.4853531 12.7171062 23.1387978 12.7166693 23.1383608 13.3622635 22.4849161 13.3627005"></polygon>
                                <polygon id="Rectangle" transform="translate(8.159861, 6.354120) rotate(-86.824301) translate(-8.159861, -6.354120) " points="7.83335663 6.03154103 8.48680132 6.03110412 8.48636441 6.67669838 7.83291971 6.67713529"></polygon>
                                <polygon id="Rectangle" transform="translate(1.169000, 16.935255) rotate(-86.824301) translate(-1.169000, -16.935255) " points="0.842496218 16.6126762 1.49594092 16.6122393 1.495504 17.2578336 0.842059306 17.2582705"></polygon>
                                <polygon id="Rectangle" transform="translate(15.475548, 22.118206) rotate(-86.824301) translate(-15.475548, -22.118206) " points="14.5725631 21.2189846 16.3797455 21.21777 16.3785339 23.0174267 14.5713515 23.0186413"></polygon>
                                <polygon id="Rectangle" transform="translate(16.805696, 14.481123) rotate(-28.112932) translate(-16.805696, -14.481123) " points="16.35893 14.0332981 17.2570103 14.0287566 17.2524626 14.928947 16.3543823 14.9334885"></polygon>
                                <polygon id="Rectangle" transform="translate(6.907945, 17.062226) rotate(-28.112932) translate(-6.907945, -17.062226) " points="6.10099865 16.2497785 7.72311738 16.2415518 7.71489074 17.8746743 6.09277201 17.882901"></polygon>
                                <polygon id="Rectangle" transform="translate(12.503367, 7.109970) rotate(-28.112932) translate(-12.503367, -7.109970) " points="11.696421 6.29752201 13.3185397 6.28929537 13.3103131 7.92241787 11.6881944 7.93064451"></polygon>
                                <polygon id="Rectangle" transform="translate(35.170855, 14.460397) rotate(-28.112932) translate(-35.170855, -14.460397) " points="33.8892764 13.17008 36.4654991 13.1570146 36.4524337 15.7507133 33.876211 15.7637787"></polygon>
                                <polygon id="Rectangle" transform="translate(29.577916, 31.920826) rotate(-28.112932) translate(-29.577916, -31.920826) " points="28.7709704 31.1083783 30.3930891 31.1001517 30.3848625 32.7332742 28.7627438 32.7415008"></polygon>
                                <polygon id="Rectangle" transform="translate(11.517390, 0.963101) rotate(-90.378147) translate(-11.517390, -0.963101) " points="10.9721806 0.424475059 12.062513 0.424562041 12.0626 1.50172745 10.9722675 1.50164047"></polygon>
                                <polygon id="Rectangle" transform="translate(27.049798, 10.353017) rotate(-90.378147) translate(-27.049798, -10.353017) " points="26.5045836 9.81439165 27.594925 9.81447863 27.595012 10.8916415 26.5046706 10.8915545"></polygon>
                            </g>
                            <g id="Group" transform="translate(0.000000, 7.967909)">
                                <polygon id="Rectangle" transform="translate(15.915479, 5.455377) rotate(105.237027) translate(-15.915479, -5.455377) " points="15.5456463 5.08940942 16.2875877 5.08713337 16.2853117 5.82134524 15.5433703 5.82362129"></polygon>
                                <polygon id="Rectangle" transform="translate(9.111687, 15.633565) rotate(105.237027) translate(-9.111687, -15.633565) " points="8.66211118 15.1856259 9.56403541 15.1828467 9.56126205 16.0815032 8.65933783 16.0842825"></polygon>
                                <polygon id="Rectangle" transform="translate(0.888223, 20.076618) rotate(105.237027) translate(-0.888223, -20.076618) " points="0.518390646 19.7106531 1.26033205 19.7083771 1.25805601 20.4425826 0.516114606 20.4448586"></polygon>
                                <polygon id="Rectangle" transform="translate(4.351664, 1.275132) rotate(105.237027) translate(-4.351664, -1.275132) " points="3.67730417 0.603224759 5.03018316 0.599055892 5.02602314 1.94703872 3.67314415 1.95120758"></polygon>
                                <polygon id="Rectangle" transform="translate(21.547113, 9.859340) rotate(105.237027) translate(-21.547113, -9.859340) " points="21.2599412 9.57517216 21.836052 9.57340484 21.8342847 10.1435088 21.2581739 10.1452761"></polygon>
                                <polygon id="Rectangle" transform="translate(1.466171, 11.347317) rotate(101.688595) translate(-1.466171, -11.347317) " points="0.759567477 10.6485759 2.17617366 10.6451771 2.17277483 12.0460576 0.756168644 12.0494565"></polygon>
                                <polygon id="Rectangle" transform="translate(9.446009, 22.190830) rotate(101.688595) translate(-9.446009, -22.190830) " points="8.54575557 21.2940598 10.3506039 21.2897087 10.3462627 23.0875994 8.54141433 23.0919505"></polygon>
                            </g>
                            <g id="Group" transform="translate(9.387597, 2.227274)">
                                <polygon id="Rectangle" transform="translate(1.541456, 14.996512) rotate(-123.593134) translate(-1.541456, -14.996512) " points="1.08916308 14.5449536 1.9887127 14.5499938 1.99374807 15.4480711 1.09419845 15.443031"></polygon>
                                <polygon id="Rectangle" transform="translate(36.113805, 7.552711) rotate(-75.249438) translate(-36.113805, -7.552711) " points="35.4393307 6.88071531 36.7923198 6.87666705 36.7882802 8.22470665 35.4352911 8.22875491"></polygon>
                                <polygon id="Rectangle" transform="translate(14.489250, 6.721369) rotate(-75.249438) translate(-14.489250, -6.721369) " points="13.5899504 5.82537463 15.3939359 5.81997695 15.3885498 7.61736308 13.5845643 7.62276076"></polygon>
                                <polygon id="Rectangle" transform="translate(27.019046, 18.044047) rotate(-75.249438) translate(-27.019046, -18.044047) " points="26.7623891 17.7901 27.2772368 17.7885665 27.2757033 18.2979935 26.7608556 18.299527"></polygon>
                                <polygon id="Rectangle" transform="translate(23.188717, 14.650347) rotate(-33.593134) translate(-23.188717, -14.650347) " points="21.7208392 13.1754918 24.6731818 13.1589051 24.6565951 16.1252019 21.7042525 16.1417886"></polygon>
                                <polygon id="Rectangle" transform="translate(17.421797, 16.124045) rotate(-27.574677) translate(-17.421797, -16.124045) " points="16.5281982 15.2282708 18.3243753 15.2193033 18.3153952 17.0198184 16.5192181 17.0287858"></polygon>
                                <polygon id="Rectangle" transform="translate(1.132673, 2.498730) rotate(-27.574677) translate(-1.132673, -2.498730) " points="0.900657831 2.26508894 1.36702369 2.26275366 1.36468841 2.73237177 0.898322551 2.73470705"></polygon>
                                <polygon id="Rectangle" transform="translate(27.461159, 1.027984) rotate(-78.802430) translate(-27.461159, -1.027984) " points="27.010955 0.579536986 27.9134482 0.577447885 27.9113639 1.47643047 27.0088707 1.47851957"></polygon>
                            </g>
                            <ellipse id="Oval" cx="20.0545149" cy="10.3083114" rx="1" ry="1"></ellipse>
                            <ellipse id="Oval" cx="30.3747694" cy="12.1913599" rx="1" ry="1"></ellipse>
                            <ellipse id="Oval" cx="32.7258687" cy="7.7822032" rx="1" ry="1"></ellipse>
                            <ellipse id="Oval" cx="28.4935836" cy="3.93359198" rx="1" ry="1"></ellipse>
                            <ellipse id="Oval" cx="14.4050234" cy="8.63198711" rx="1.1252684" ry="1.12999914"></ellipse>
                            <ellipse id="Oval" cx="22.6644872" cy="24.1522041" rx="1" ry="1"></ellipse>
                            <ellipse id="Oval" cx="26.4547939" cy="9.63913242" rx="1" ry="1"></ellipse>
                            <ellipse id="Oval" cx="15.4627694" cy="20.1873169" rx="1" ry="1"></ellipse>
                        </g>
                        <g id="IMG-Coins-Copy-2" transform="translate(62.371134, 29.484536)" fill-rule="nonzero">
                            <circle id="Oval" fill="url(#linearGradient-7)" cx="6.80412371" cy="6.80412371" r="6.80412371"></circle>
                            <circle id="Oval" fill="#D6A836" cx="6.80412371" cy="6.80412371" r="5.67010309"></circle>
                            <g id="Group" transform="translate(3.402062, 4.536082)" fill="#FFFFFF">
                                <path d="M1.31042383,3.27605956 C1.20962199,3.27605956 1.10882016,3.27605956 1.00801833,3.22565865 L1.00801833,4.38487973 L0.252004582,4.38487973 L0.252004582,1.00801833 C0.504009164,0.907216495 0.856815578,0.856815578 1.20962199,0.856815578 C2.1672394,0.856815578 2.57044674,1.31042383 2.57044674,2.01603666 C2.57044674,2.67124857 2.11683849,3.27605956 1.31042383,3.27605956 Z M1.20962199,1.46162658 C1.10882016,1.46162658 1.05841924,1.46162658 1.00801833,1.46162658 L1.00801833,2.67124857 C1.10882016,2.67124857 1.15922108,2.72164948 1.26002291,2.72164948 C1.61282932,2.72164948 1.81443299,2.4696449 1.81443299,2.06643757 C1.81443299,1.66323024 1.61282932,1.46162658 1.20962199,1.46162658 Z" id="Shape"></path>
                                <path d="M3.83046964,3.27605956 C3.32646048,3.27605956 3.12485682,3.02405498 3.12485682,2.67124857 L3.12485682,1.46162658 L2.67124857,1.46162658 L2.67124857,0.907216495 L3.12485682,0.907216495 L3.12485682,0.352806415 L3.88087056,0.151202749 L3.88087056,0.907216495 L4.58648339,0.907216495 L4.38487973,1.46162658 L3.88087056,1.46162658 L3.88087056,2.4696449 C3.88087056,2.62084765 3.93127148,2.72164948 4.13287514,2.72164948 C4.23367698,2.72164948 4.38487973,2.67124857 4.48568156,2.62084765 L4.63688431,3.12485682 C4.38487973,3.22565865 4.08247423,3.27605956 3.83046964,3.27605956 Z" id="Path"></path>
                                <path d="M5.69530355,3.27605956 C5.29209622,3.27605956 4.93928981,3.17525773 4.73768614,3.02405498 L4.93928981,2.52004582 C5.14089347,2.67124857 5.39289805,2.7720504 5.59450172,2.7720504 C5.79610538,2.7720504 5.94730813,2.72164948 5.94730813,2.57044674 C5.94730813,2.26804124 4.88888889,2.36884307 4.88888889,1.61282932 C4.88888889,1.15922108 5.2416953,0.856815578 5.8465063,0.856815578 C6.1489118,0.856815578 6.40091638,0.907216495 6.60252005,0.957617411 L6.60252005,1.56242841 C6.40091638,1.46162658 6.1489118,1.41122566 5.89690722,1.41122566 C5.69530355,1.41122566 5.64490263,1.46162658 5.64490263,1.56242841 C5.64490263,1.81443299 6.75372279,1.71363116 6.75372279,2.52004582 C6.70332188,3.0744559 6.19931271,3.27605956 5.69530355,3.27605956 Z" id="Path"></path>
                            </g>
                        </g>
                        <g id="IMG-Coins" transform="translate(13.608247, 61.237113)" fill-rule="nonzero">
                            <circle id="Oval" fill="url(#linearGradient-7)" cx="6.80412371" cy="6.80412371" r="6.80412371"></circle>
                            <circle id="Oval" fill="#D6A836" cx="6.80412371" cy="6.80412371" r="5.67010309"></circle>
                            <g id="Group" transform="translate(3.402062, 4.536082)" fill="#FFFFFF">
                                <path d="M1.31042383,3.27605956 C1.20962199,3.27605956 1.10882016,3.27605956 1.00801833,3.22565865 L1.00801833,4.38487973 L0.252004582,4.38487973 L0.252004582,1.00801833 C0.504009164,0.907216495 0.856815578,0.856815578 1.20962199,0.856815578 C2.1672394,0.856815578 2.57044674,1.31042383 2.57044674,2.01603666 C2.57044674,2.67124857 2.11683849,3.27605956 1.31042383,3.27605956 Z M1.20962199,1.46162658 C1.10882016,1.46162658 1.05841924,1.46162658 1.00801833,1.46162658 L1.00801833,2.67124857 C1.10882016,2.67124857 1.15922108,2.72164948 1.26002291,2.72164948 C1.61282932,2.72164948 1.81443299,2.4696449 1.81443299,2.06643757 C1.81443299,1.66323024 1.61282932,1.46162658 1.20962199,1.46162658 Z" id="Shape"></path>
                                <path d="M3.83046964,3.27605956 C3.32646048,3.27605956 3.12485682,3.02405498 3.12485682,2.67124857 L3.12485682,1.46162658 L2.67124857,1.46162658 L2.67124857,0.907216495 L3.12485682,0.907216495 L3.12485682,0.352806415 L3.88087056,0.151202749 L3.88087056,0.907216495 L4.58648339,0.907216495 L4.38487973,1.46162658 L3.88087056,1.46162658 L3.88087056,2.4696449 C3.88087056,2.62084765 3.93127148,2.72164948 4.13287514,2.72164948 C4.23367698,2.72164948 4.38487973,2.67124857 4.48568156,2.62084765 L4.63688431,3.12485682 C4.38487973,3.22565865 4.08247423,3.27605956 3.83046964,3.27605956 Z" id="Path"></path>
                                <path d="M5.69530355,3.27605956 C5.29209622,3.27605956 4.93928981,3.17525773 4.73768614,3.02405498 L4.93928981,2.52004582 C5.14089347,2.67124857 5.39289805,2.7720504 5.59450172,2.7720504 C5.79610538,2.7720504 5.94730813,2.72164948 5.94730813,2.57044674 C5.94730813,2.26804124 4.88888889,2.36884307 4.88888889,1.61282932 C4.88888889,1.15922108 5.2416953,0.856815578 5.8465063,0.856815578 C6.1489118,0.856815578 6.40091638,0.907216495 6.60252005,0.957617411 L6.60252005,1.56242841 C6.40091638,1.46162658 6.1489118,1.41122566 5.89690722,1.41122566 C5.69530355,1.41122566 5.64490263,1.46162658 5.64490263,1.56242841 C5.64490263,1.81443299 6.75372279,1.71363116 6.75372279,2.52004582 C6.70332188,3.0744559 6.19931271,3.27605956 5.69530355,3.27605956 Z" id="Path"></path>
                            </g>
                        </g>
                    </g>
                </g>
            </g>
        </g>
    </g>
</svg>