<svg xmlns="http://www.w3.org/2000/svg" width="24" height="24" viewBox="0 0 24 24">
    <g fill="none" fill-rule="evenodd">
        <path d="M0 0H24V24H0z"/>
        <path fill="#00507C" fill-rule="nonzero" d="M12 1l9 4v6c0 2.38-.71 4.69-1.92 6.65l-2.9-2.9c1.28-1.94 1.07-4.58-.64-6.29-1.95-1.95-5.12-1.95-7.07 0-1.95 1.95-1.95 5.12 0 7.07 1.71 1.71 4.35 1.93 6.29.64l3.12 3.12C16.33 21.1 14.3 22.44 12 23c-5.16-1.26-9-6.45-9-12V5l9-4zm0 8c1.657 0 3 1.343 3 3s-1.343 3-3 3-3-1.343-3-3 1.343-3 3-3z"/>
    </g>
</svg>
